<svg viewBox="0 0 512 512" xmlns="http://www.w3.org/2000/svg" xmlns:xlink="http://www.w3.org/1999/xlink"><linearGradient id="a" gradientTransform="matrix(1 0 0 -1 0 -10886)" gradientUnits="userSpaceOnUse" x1="0" x2="512" y1="-11142" y2="-11142"><stop offset="0" stop-color="#00f1ff"/><stop offset=".231" stop-color="#00d8ff"/><stop offset=".5138" stop-color="#00c0ff"/><stop offset=".7773" stop-color="#00b2ff"/><stop offset="1" stop-color="#00adff"/></linearGradient><path d="m512 256c0 141.386719-114.613281 256-256 256s-256-114.613281-256-256 114.613281-256 256-256 256 114.613281 256 256zm0 0" fill="url(#a)"/><g fill="#fff"><path d="m90.574219 270.117188c13.871093 0 27.320312-7.6875 39.984375-22.847657.167968-.203125.707031-.414062 1.375-.414062.664062 0 1.203125.210937 1.371094.414062 12.664062 15.160157 26.113281 22.847657 39.980468 22.847657 13.871094 0 27.320313-7.6875 39.984375-22.847657.167969-.203125.707031-.414062 1.375-.414062.664063 0 1.203125.210937 1.371094.414062 12.664063 15.160157 26.113281 22.847657 39.980469 22.847657 13.871094 0 27.320312-7.6875 39.984375-22.847657.167969-.203125.707031-.414062 1.371093-.414062.667969 0 1.207032.210937 1.375.414062 12.664063 15.160157 26.113282 22.847657 39.984376 22.847657 13.867187 0 27.316406-7.6875 39.980468-22.847657.167969-.203125.707032-.414062 1.371094-.414062.667969 0 1.207031.210937 1.375.414062 12.664062 15.160157 26.113281 22.847657 39.984375 22.847657 8.28125 0 15-6.714844 15-15 0-8.285157-6.71875-15-15-15-4.304687 0-10.644531-4.515626-16.960937-12.082032-5.9375-7.105468-14.828126-11.179687-24.398438-11.179687-9.566406 0-18.457031 4.074219-24.394531 11.179687-6.316407 7.566406-12.65625 12.082032-16.957031 12.082032-4.304688 0-10.644532-4.515626-16.960938-12.082032-5.9375-7.105468-14.828125-11.179687-24.398438-11.179687-9.566406 0-18.457031 4.074219-24.394531 11.179687-6.316406 7.566406-12.65625 12.082032-16.960937 12.082032-4.300782 0-10.640625-4.515626-16.957032-12.082032-5.9375-7.105468-14.828124-11.179687-24.394531-11.179687-9.570312 0-18.460937 4.074219-24.398437 11.179687-6.316406 7.566406-12.65625 12.082032-16.960938 12.082032-4.300781 0-10.640625-4.515626-16.957031-12.082032-5.9375-7.105468-14.828125-11.179687-24.394531-11.179687-9.570313 0-18.460938 4.074219-24.398438 11.179687-6.316406 7.566406-12.65625 12.082032-16.960937 12.082032-8.28125 0-15 6.714843-15 15 0 8.285156 6.71875 15 15 15zm0 0"/><path d="m421.425781 305.382812c-4.304687 0-10.644531-4.519531-16.960937-12.082031-5.9375-7.105469-14.828125-11.183593-24.398438-11.183593-9.566406 0-18.457031 4.078124-24.394531 11.183593-6.316406 7.5625-12.65625 12.082031-16.957031 12.082031-4.304688 0-10.644532-4.519531-16.960938-12.082031-5.9375-7.105469-14.828125-11.183593-24.398437-11.183593-9.566407 0-18.457031 4.078124-24.394531 11.183593-6.316407 7.5625-12.65625 12.082031-16.957032 12.082031-4.304687 0-10.644531-4.519531-16.960937-12.082031-5.9375-7.105469-14.828125-11.183593-24.398438-11.183593-9.566406 0-18.460937 4.078124-24.394531 11.183593-6.316406 7.5625-12.65625 12.082031-16.960938 12.082031-4.300781 0-10.640624-4.519531-16.960937-12.082031-5.933594-7.105469-14.824219-11.183593-24.394531-11.183593-9.566406 0-18.460938 4.078124-24.398438 11.183593-6.316406 7.5625-12.65625 12.082031-16.957031 12.082031-8.285156 0-15 6.714844-15 15 0 8.28125 6.714844 15 15 15 13.867187 0 27.320313-7.691406 39.984375-22.851562.167969-.199219.703125-.414062 1.371094-.414062.667968 0 1.203125.214843 1.371094.414062 12.664062 15.160156 26.117187 22.851562 39.984374 22.851562 13.867188 0 27.320313-7.691406 39.984376-22.851562.167968-.199219.703124-.414062 1.371093-.414062s1.203125.214843 1.371094.414062c12.664063 15.160156 26.117187 22.851562 39.984375 22.851562s27.320312-7.691406 39.984375-22.851562c.167969-.199219.703125-.414062 1.371094-.414062s1.203125.214843 1.371093.414062c12.664063 15.160156 26.117188 22.851562 39.984376 22.851562 13.867187 0 27.320312-7.691406 39.984374-22.851562.167969-.199219.703126-.414062 1.371094-.414062.667969 0 1.203125.214843 1.371094.414062 12.664062 15.160156 26.117188 22.851562 39.984375 22.851562 8.285156 0 15-6.71875 15-15 0-8.285156-6.714844-15-14.996094-15zm0 0"/><path d="m421.425781 370c-4.304687 0-10.644531-4.515625-16.960937-12.082031-5.9375-7.105469-14.828125-11.179688-24.398438-11.179688-9.566406 0-18.457031 4.074219-24.394531 11.183594-6.316406 7.5625-12.65625 12.078125-16.957031 12.078125-4.304688 0-10.644532-4.515625-16.960938-12.082031-5.9375-7.105469-14.828125-11.179688-24.398437-11.179688-9.566407 0-18.457031 4.074219-24.394531 11.183594-6.320313 7.5625-12.660157 12.078125-16.960938 12.078125s-10.640625-4.515625-16.960938-12.082031c-5.933593-7.105469-14.828124-11.179688-24.394531-11.179688-9.570312 0-18.460937 4.074219-24.398437 11.183594-6.316406 7.5625-12.65625 12.078125-16.957032 12.078125-4.304687 0-10.644531-4.515625-16.960937-12.082031-5.9375-7.105469-14.828125-11.179688-24.394531-11.179688-9.570313 0-18.460938 4.074219-24.398438 11.183594-6.316406 7.5625-12.65625 12.078125-16.960937 12.078125-8.28125 0-15 6.714844-15 15s6.71875 15 15 15c13.871093 0 27.324219-7.6875 39.984375-22.847656.167968-.203125.707031-.414063 1.375-.414063.664062 0 1.203125.210938 1.371094.414063 12.664062 15.160156 26.117187 22.847656 39.984374 22.847656 13.867188 0 27.320313-7.6875 39.980469-22.847656.167969-.203125.707031-.414063 1.375-.414063.664063 0 1.203125.210938 1.371094.414063 12.664063 15.160156 26.117187 22.847656 39.984375 22.847656s27.320312-7.6875 39.984375-22.847656c.167969-.203125.703125-.414063 1.371094-.414063s1.203125.210938 1.371093.414063c12.664063 15.160156 26.117188 22.847656 39.984376 22.847656 13.867187 0 27.320312-7.6875 39.984374-22.847656.167969-.203125.707032-.414063 1.371094-.414063.667969 0 1.207032.210938 1.371094.414063 12.664062 15.160156 26.117188 22.847656 39.988281 22.847656 8.28125 0 15-6.714844 15-15s-6.71875-15-15-15zm0 0"/><path d="m209.074219 137.796875 31.925781-31.800781v74.808594c0 8.285156 6.714844 15 15 15s15-6.714844 15-15v-75.777344l32.519531 32.71875c2.929688 2.949218 6.785157 4.425781 10.636719 4.425781 3.824219 0 7.648438-1.453125 10.574219-4.359375 5.878906-5.839844 5.90625-15.339844.066406-21.214844l-39.394531-39.632812c-15.929688-15.925782-41.84375-15.925782-57.746094-.019532l-39.753906 39.601563c-5.867188 5.84375-5.886719 15.34375-.039063 21.210937 5.84375 5.867188 15.34375 5.886719 21.210938.039063zm0 0"/></g></svg>